<?xml version="1.0" encoding="UTF-8" standalone="no" ?>
<!DOCTYPE svg PUBLIC "-//W3C//DTD SVG 1.1//EN" "http://www.w3.org/Graphics/SVG/1.1/DTD/svg11.dtd">
<svg xmlns="http://www.w3.org/2000/svg" xmlns:xlink="http://www.w3.org/1999/xlink" version="1.1" width="1080" height="1080" viewBox="0 0 1080 1080" xml:space="preserve">
<desc>Created with Fabric.js 5.2.4</desc>
<defs>
</defs>
<rect x="0" y="0" width="100%" height="100%" fill="transparent"></rect>
<g transform="matrix(1 0 0 1 540 540)" id="f32bb4e2-b9c8-4687-a840-bdcd246db0a4"  >
<rect style="stroke: none; stroke-width: 1; stroke-dasharray: none; stroke-linecap: butt; stroke-dashoffset: 0; stroke-linejoin: miter; stroke-miterlimit: 4; fill: rgb(255,255,255); fill-rule: nonzero; opacity: 1; visibility: hidden;" vector-effect="non-scaling-stroke"  x="-540" y="-540" rx="0" ry="0" width="1080" height="1080" />
</g>
<g transform="matrix(0 0 0 0 0 0)" id="e06821b5-00c3-4e30-a619-1ea98b374d87"  >
</g>
<g transform="matrix(5.24 -5.24 5.24 5.24 540 540)"  >
<ellipse style="stroke: none; stroke-width: 1; stroke-dasharray: none; stroke-linecap: butt; stroke-dashoffset: 0; stroke-linejoin: miter; stroke-miterlimit: 4; fill: rgb(168,162,158); fill-rule: nonzero; opacity: 1;" vector-effect="non-scaling-stroke"  cx="0" cy="0" rx="69.745" ry="69.745" />
</g>
<g transform="matrix(7.4 0 0 7.71 544.33 358.61)" clip-path="url(#CLIPPATH_181)"  >
<clipPath id="CLIPPATH_181" >
	<ellipse transform="matrix(0.71 -0.71 0.71 0.71 -0.54 23.4)" cx="0" cy="0" rx="69.745" ry="69.745" />
</clipPath>
<path style="stroke: none; stroke-width: 1; stroke-dasharray: none; stroke-linecap: butt; stroke-dashoffset: 0; stroke-linejoin: miter; stroke-miterlimit: 4; fill: rgb(48,41,34); fill-rule: nonzero; opacity: 1;" vector-effect="non-scaling-stroke"  transform=" translate(-404.85, -132.24)" d="M 376.753 134.788 C 376.753 134.788 373.228 146.476 384.716 151.14100000000002 C 384.716 151.14100000000002 384.531 156.61200000000002 391.284 158.67900000000003 C 398.036 160.74700000000004 432.371 139.99400000000003 432.371 139.99400000000003 C 432.371 139.99400000000003 436.193 124.86600000000003 429.51399999999995 115.33600000000003 C 422.835 105.80600000000003 411.61699999999996 103.84800000000003 398.03599999999994 107.11200000000002 C 384.455 110.377 375.654 124.17 376.753 134.788 z" stroke-linecap="round" />
</g>
<g transform="matrix(7.4 0 0 7.4 516.12 851.14)" clip-path="url(#CLIPPATH_182)"  >
<clipPath id="CLIPPATH_182" >
	<ellipse transform="matrix(0.71 -0.71 0.71 0.71 3.26 -43.39)" cx="0" cy="0" rx="69.745" ry="69.745" />
</clipPath>
<path style="stroke: none; stroke-width: 1; stroke-dasharray: none; stroke-linecap: butt; stroke-dashoffset: 0; stroke-linejoin: miter; stroke-miterlimit: 4; fill: rgb(27,78,59); fill-rule: nonzero; opacity: 1;" vector-effect="non-scaling-stroke"  transform=" translate(-401.06, -199.03)" d="M 459.047 225.381 L 343.065 225.381 C 343.065 225.381 345.816 194.236 358.399 185.189 C 366.751 179.194 378.247 175.64 385.028 173.94 C 388.464 173.072 390.694 172.679 390.694 172.679 L 416.345 173.766 C 416.345 173.766 418.721 174.20499999999998 422.24800000000005 175.19199999999998 C 427.64000000000004 176.7 435.72700000000003 179.49599999999998 442.14200000000005 184.01 C 452.76 191.486 459.047 225.381 459.047 225.381 z" stroke-linecap="round" />
</g>
<g transform="matrix(7.4 0 0 7.4 535.5 702.48)" clip-path="url(#CLIPPATH_183)"  >
<clipPath id="CLIPPATH_183" >
	<ellipse transform="matrix(0.71 -0.71 0.71 0.71 0.66 -21.92)" cx="0" cy="0" rx="69.745" ry="69.745" />
</clipPath>
<path style="stroke: none; stroke-width: 1; stroke-dasharray: none; stroke-linecap: butt; stroke-dashoffset: 0; stroke-linejoin: miter; stroke-miterlimit: 4; fill: rgb(77,125,128); fill-rule: nonzero; opacity: 1;" vector-effect="non-scaling-stroke"  transform=" translate(-403.65, -177.56)" d="M 422.263 175.192 C 420.73699999999997 177.815 416.54299999999995 182.256 405.62199999999996 182.43900000000002 C 392.554 182.65800000000002 386.59599999999995 176.04200000000003 385.04299999999995 173.94100000000003 C 388.4789999999999 173.07300000000004 390.70899999999995 172.68000000000004 390.70899999999995 172.68000000000004 L 416.35999999999996 173.76700000000002 C 416.359 173.767 418.735 174.205 422.263 175.192 z" stroke-linecap="round" />
</g>
<g transform="matrix(7.4 0 0 7.4 535.55 601.05)" clip-path="url(#CLIPPATH_184)"  >
<clipPath id="CLIPPATH_184" >
	<ellipse transform="matrix(0.71 -0.71 0.71 0.71 0.66 -8.24)" cx="0" cy="0" rx="69.745" ry="69.745" />
</clipPath>
<path style="stroke: none; stroke-width: 1; stroke-dasharray: none; stroke-linecap: butt; stroke-dashoffset: 0; stroke-linejoin: miter; stroke-miterlimit: 4; fill: rgb(230,150,128); fill-rule: nonzero; opacity: 1;" vector-effect="non-scaling-stroke"  transform=" translate(-403.65, -163.88)" d="M 416.615 167.295 L 416.341 173.767 C 415.558 174.346 414.77 174.846 413.982 175.275 C 402.459 181.548 390.69000000000005 172.681 390.69000000000005 172.681 L 391.64000000000004 150.24300000000002 L 413.636 165.26200000000003 L 416.615 167.295 z" stroke-linecap="round" />
</g>
<g transform="matrix(7.4 0 0 7.4 562.81 631.65)" clip-path="url(#CLIPPATH_185)"  >
<clipPath id="CLIPPATH_185" >
	<ellipse transform="matrix(0.71 -0.71 0.71 0.71 -3.01 -12.37)" cx="0" cy="0" rx="69.745" ry="69.745" />
</clipPath>
<path style="stroke: none; stroke-width: 1; stroke-dasharray: none; stroke-linecap: butt; stroke-dashoffset: 0; stroke-linejoin: miter; stroke-miterlimit: 4; fill: rgb(48,41,34); fill-rule: nonzero; opacity: 1;" vector-effect="non-scaling-stroke"  transform=" translate(-407.33, -168.01)" d="M 416.615 167.295 L 416.341 173.767 C 415.558 174.346 414.77 174.846 413.982 175.275 C 404.574 171.082 398.035 160.74800000000002 398.035 160.74800000000002 L 413.636 165.26200000000003 L 416.615 167.295 z" stroke-linecap="round" />
</g>
<g transform="matrix(7.4 0 0 7.4 724.5 453.95)" clip-path="url(#CLIPPATH_186)"  >
<clipPath id="CLIPPATH_186" >
	<ellipse transform="matrix(0.71 -0.71 0.71 0.71 -24.83 11.61)" cx="0" cy="0" rx="69.745" ry="69.745" />
</clipPath>
<path style="stroke: none; stroke-width: 1; stroke-dasharray: none; stroke-linecap: butt; stroke-dashoffset: 0; stroke-linejoin: miter; stroke-miterlimit: 4; fill: rgb(224,108,92); fill-rule: nonzero; opacity: 1;" vector-effect="non-scaling-stroke"  transform=" translate(-429.14, -144.03)" d="M 425.917 138.958 C 425.917 138.958 429.77599999999995 134.771 431.66999999999996 139.201 C 433.56399999999996 143.631 431.59399999999994 152.35299999999998 426.061 150.678 L 425.917 138.958 z" stroke-linecap="round" />
</g>
<g transform="matrix(7.4 0 0 7.4 584.91 423.96)" clip-path="url(#CLIPPATH_187)"  >
<clipPath id="CLIPPATH_187" >
	<ellipse transform="matrix(0.71 -0.71 0.71 0.71 -6.01 15.64)" cx="0" cy="0" rx="69.745" ry="69.745" />
</clipPath>
<path style="stroke: none; stroke-width: 1; stroke-dasharray: none; stroke-linecap: butt; stroke-dashoffset: 0; stroke-linejoin: miter; stroke-miterlimit: 4; fill: rgb(230,150,128); fill-rule: nonzero; opacity: 1;" vector-effect="non-scaling-stroke"  transform=" translate(-410.32, -139.99)" d="M 429.512 126.33 L 429.348 140.357 L 429.31100000000004 143.793 L 429.302 144.41400000000002 C 429.302 144.41400000000002 429.302 144.423 429.302 144.45000000000002 L 429.192 154.347 C 429.192 154.347 428.644 167.734 414.726 167.113 C 409.289 166.86599999999999 404.61 164.984 400.9 162.745 C 395.161 159.309 391.753 155.032 391.46 154.71200000000002 C 391.46 154.70300000000003 391.45099999999996 154.70300000000003 391.45099999999996 154.70300000000003 L 391.414 151.87900000000002 L 391.25 137.258 L 391.159 129.436 C 391.159 129.436 389.989 115.31800000000001 403.45 113.316 C 413.283 111.863 422.35699999999997 113.864 426.752 119.146 C 426.898 119.32000000000001 427.035 119.493 427.163 119.676 C 428.544 121.524 429.375 123.744 429.512 126.33 z" stroke-linecap="round" />
</g>
<g transform="matrix(7.4 0 0 7.4 629.66 493.53)" clip-path="url(#CLIPPATH_188)"  >
<clipPath id="CLIPPATH_188" >
	<ellipse transform="matrix(0.71 -0.71 0.71 0.71 -12.03 7.28)" cx="0" cy="0" rx="69.745" ry="69.745" />
</clipPath>
<path style="stroke: none; stroke-width: 1; stroke-dasharray: none; stroke-linecap: butt; stroke-dashoffset: 0; stroke-linejoin: miter; stroke-miterlimit: 4; fill: rgb(48,41,34); fill-rule: nonzero; opacity: 1;" vector-effect="non-scaling-stroke"  transform=" translate(-416.35, -148.36)" d="M 418.695 151.134 C 418.08299999999997 151.16199999999998 417.396 151.111 416.632 150.945 C 412.67900000000003 150.08499999999998 410.047 146.552 409.938 146.402 C 409.77 146.17299999999997 409.81899999999996 145.851 410.048 145.682 C 410.277 145.51299999999998 410.599 145.56199999999998 410.76800000000003 145.792 C 410.793 145.825 413.286 149.162 416.85200000000003 149.938 C 420.38300000000004 150.707 421.90700000000004 148.617 421.922 148.59599999999998 C 422.08700000000005 148.36299999999997 422.408 148.30799999999996 422.64000000000004 148.47199999999998 C 422.87300000000005 148.63599999999997 422.92800000000005 148.95799999999997 422.76400000000007 149.18999999999997 C 422.7 149.28 421.443 151.007 418.695 151.134 z" stroke-linecap="round" />
</g>
<g transform="matrix(7.4 0 0 7.4 632.94 526.43)" clip-path="url(#CLIPPATH_189)"  >
<clipPath id="CLIPPATH_189" >
	<ellipse transform="matrix(0.71 -0.71 0.71 0.71 -12.47 1.84)" cx="0" cy="0" rx="69.745" ry="69.745" />
</clipPath>
<path style="stroke: none; stroke-width: 1; stroke-dasharray: none; stroke-linecap: butt; stroke-dashoffset: 0; stroke-linejoin: miter; stroke-miterlimit: 4; fill: rgb(224,108,92); fill-rule: nonzero; opacity: 1;" vector-effect="non-scaling-stroke"  transform=" translate(-416.79, -153.8)" d="M 419.257 154.178 C 419.52 154.035 419.677 153.924 419.702 153.906 C 420.007 153.686 420.076 153.26000000000002 419.856 152.954 C 419.637 152.649 419.213 152.577 418.906 152.799 C 418.81600000000003 152.863 416.798 154.258 414.579 153.116 C 414.244 152.94400000000002 413.833 153.07500000000002 413.661 153.41000000000003 C 413.489 153.74500000000003 413.62 154.15600000000003 413.955 154.32800000000003 C 416.256 155.511 418.365 154.662 419.257 154.178 z" stroke-linecap="round" />
</g>
<g transform="matrix(7.4 0 0 7.4 652.07 416.71)" clip-path="url(#CLIPPATH_190)"  >
<clipPath id="CLIPPATH_190" >
	<ellipse transform="matrix(0.71 -0.71 0.71 0.71 -15.06 16.64)" cx="0" cy="0" rx="69.745" ry="69.745" />
</clipPath>
<path style="stroke: none; stroke-width: 1; stroke-dasharray: none; stroke-linecap: butt; stroke-dashoffset: 0; stroke-linejoin: miter; stroke-miterlimit: 4; fill: rgb(48,41,34); fill-rule: nonzero; opacity: 1;" vector-effect="non-scaling-stroke"  transform=" translate(-419.37, -139)" d="M 419.85 144.838 C 418.59900000000005 144.62099999999998 417.232 144.124 416.466 143.821 C 416.184 143.709 416.046 143.389 416.157 143.107 C 416.269 142.824 416.59299999999996 142.684 416.871 142.798 C 418.943 143.619 421.204 144.085 421.52599999999995 143.757 L 421.52599999999995 143.757 C 421.52299999999997 143.757 421.52899999999994 143.71 421.508 143.622 C 420.457 138.996 418.09 138.43800000000002 418.066 138.43300000000002 C 417.806 138.37800000000001 417.616 138.14200000000002 417.62399999999997 137.877 L 417.756 133.589 C 417.765 133.285 418.01899999999995 133.047 418.323 133.056 C 418.61899999999997 133.065 418.866 133.31900000000002 418.856 133.62300000000002 L 418.736 137.50600000000003 C 419.642 137.89200000000002 421.631 139.19800000000004 422.582 143.37900000000002 C 422.735 144.05200000000002 422.43399999999997 144.42900000000003 422.242 144.59400000000002 C 421.758 145.007 420.841 145.01 419.85 144.838 z" stroke-linecap="round" />
</g>
<g transform="matrix(7.4 0 0 7.4 575.1 338)" clip-path="url(#CLIPPATH_191)"  >
<clipPath id="CLIPPATH_191" >
	<ellipse transform="matrix(0.71 -0.71 0.71 0.71 -4.67 27.26)" cx="0" cy="0" rx="69.745" ry="69.745" />
</clipPath>
<path style="stroke: none; stroke-width: 1; stroke-dasharray: none; stroke-linecap: butt; stroke-dashoffset: 0; stroke-linejoin: miter; stroke-miterlimit: 4; fill: rgb(48,41,34); fill-rule: nonzero; opacity: 1;" vector-effect="non-scaling-stroke"  transform=" translate(-408.99, -128.37)" d="M 404.161 128.744 L 404.161 128.744 C 404.801 130.338 406.599 131.128 408.204 130.516 C 409.142 130.159 410.244 129.816 411.399 129.61499999999998 C 413.037 129.32999999999998 414.109 127.74099999999999 413.738 126.11999999999998 L 413.738 126.11999999999998 C 413.738 126.12 407.284 125.252 404.161 128.744 z" stroke-linecap="round" />
</g>
<g transform="matrix(7.4 0 0 7.4 690.8 342.39)" clip-path="url(#CLIPPATH_192)"  >
<clipPath id="CLIPPATH_192" >
	<ellipse transform="matrix(0.71 -0.71 0.71 0.71 -20.28 26.68)" cx="0" cy="0" rx="69.745" ry="69.745" />
</clipPath>
<path style="stroke: none; stroke-width: 1; stroke-dasharray: none; stroke-linecap: butt; stroke-dashoffset: 0; stroke-linejoin: miter; stroke-miterlimit: 4; fill: rgb(48,41,34); fill-rule: nonzero; opacity: 1;" vector-effect="non-scaling-stroke"  transform=" translate(-424.6, -128.96)" d="M 429.328 129.81 L 429.328 129.81 C 428.556 131.344 426.698 131.979 425.15 131.234 C 424.246 130.799 423.17699999999996 130.364 422.042 130.066 C 420.43399999999997 129.644 419.5 127.97 420.00699999999995 126.386 L 420.00699999999995 126.386 C 420.008 126.386 426.512 126.066 429.328 129.81 z" stroke-linecap="round" />
</g>
<g transform="matrix(7.4 0 0 7.4 571.37 393)" clip-path="url(#CLIPPATH_193)"  >
<clipPath id="CLIPPATH_193" >
	<ellipse transform="matrix(0.71 -0.71 0.71 0.71 -4.16 19.84)" cx="0" cy="0" rx="69.745" ry="69.745" />
</clipPath>
<path style="stroke: none; stroke-width: 1; stroke-dasharray: none; stroke-linecap: butt; stroke-dashoffset: 0; stroke-linejoin: miter; stroke-miterlimit: 4; fill: rgb(48,41,34); fill-rule: nonzero; opacity: 1;" vector-effect="non-scaling-stroke"  transform=" translate(-408.48, -135.79)" d="M 409.832 135.852 C 409.775 137.19 409.123 138.249 408.37399999999997 138.217 C 407.62499999999994 138.185 407.06399999999996 137.07500000000002 407.121 135.73700000000002 C 407.178 134.39900000000003 407.83 133.34000000000003 408.579 133.372 C 409.328 133.404 409.889 134.514 409.832 135.852 z" stroke-linecap="round" />
</g>
<g transform="matrix(7.4 0 0 7.4 669.47 397.14)" clip-path="url(#CLIPPATH_194)"  >
<clipPath id="CLIPPATH_194" >
	<ellipse transform="matrix(0.71 -0.71 0.71 0.71 -17.4 19.28)" cx="0" cy="0" rx="69.745" ry="69.745" />
</clipPath>
<path style="stroke: none; stroke-width: 1; stroke-dasharray: none; stroke-linecap: butt; stroke-dashoffset: 0; stroke-linejoin: miter; stroke-miterlimit: 4; fill: rgb(48,41,34); fill-rule: nonzero; opacity: 1;" vector-effect="non-scaling-stroke"  transform=" translate(-421.71, -136.36)" d="M 423.069 136.413 C 423.01300000000003 137.751 422.36 138.81 421.611 138.77800000000002 C 420.86199999999997 138.747 420.301 137.63600000000002 420.358 136.29800000000003 C 420.415 134.96000000000004 421.068 133.90100000000004 421.81600000000003 133.93300000000002 C 422.565 133.965 423.125 135.075 423.069 136.413 z" stroke-linecap="round" />
</g>
<g transform="matrix(7.4 0 0 7.4 462.12 513.77)" clip-path="url(#CLIPPATH_195)"  >
<clipPath id="CLIPPATH_195" >
	<ellipse transform="matrix(0.71 -0.71 0.71 0.71 10.58 3.54)" cx="0" cy="0" rx="69.745" ry="69.745" />
</clipPath>
<path style="stroke: none; stroke-width: 1; stroke-dasharray: none; stroke-linecap: butt; stroke-dashoffset: 0; stroke-linejoin: miter; stroke-miterlimit: 4; fill: rgb(48,41,34); fill-rule: nonzero; opacity: 1;" vector-effect="non-scaling-stroke"  transform=" translate(-393.74, -152.1)" d="M 396.051 149.473 C 395.981 149.619 394.04699999999997 153.62900000000002 391.464 154.71800000000002 C 391.456 154.70900000000003 391.451 154.70300000000003 391.451 154.70300000000003 L 391.41900000000004 151.88500000000002 C 391.42 151.885 393.633 151.602 396.051 149.473 z" stroke-linecap="round" />
</g>
<g transform="matrix(7.4 0 0 7.4 426.06 453.85)" clip-path="url(#CLIPPATH_196)"  >
<clipPath id="CLIPPATH_196" >
	<ellipse transform="matrix(0.71 -0.71 0.71 0.71 15.44 11.62)" cx="0" cy="0" rx="69.745" ry="69.745" />
</clipPath>
<path style="stroke: none; stroke-width: 1; stroke-dasharray: none; stroke-linecap: butt; stroke-dashoffset: 0; stroke-linejoin: miter; stroke-miterlimit: 4; fill: rgb(230,150,128); fill-rule: nonzero; opacity: 1;" vector-effect="non-scaling-stroke"  transform=" translate(-388.87, -144.02)" d="M 393.995 140.077 C 393.995 140.077 388.95 132.665 384.791 138.145 C 381.364 142.661 386.957 155.04600000000002 393.525 151.162 L 393.995 140.077 z" stroke-linecap="round" />
</g>
<g transform="matrix(7.4 0 0 7.4 436.19 456.49)" clip-path="url(#CLIPPATH_197)"  >
<clipPath id="CLIPPATH_197" >
	<ellipse transform="matrix(0.71 -0.71 0.71 0.71 14.08 11.27)" cx="0" cy="0" rx="69.745" ry="69.745" />
</clipPath>
<path style="stroke: none; stroke-width: 1; stroke-dasharray: none; stroke-linecap: butt; stroke-dashoffset: 0; stroke-linejoin: miter; stroke-miterlimit: 4; fill: rgb(48,41,34); fill-rule: nonzero; opacity: 1;" vector-effect="non-scaling-stroke"  transform=" translate(-390.23, -144.36)" d="M 392.885 148.967 C 392.905 148.96800000000002 392.925 148.96800000000002 392.94599999999997 148.966 C 393.24999999999994 148.94500000000002 393.479 148.68300000000002 393.45899999999995 148.37900000000002 C 393.0489999999999 142.24 387.9959999999999 139.90500000000003 387.78099999999995 139.80900000000003 C 387.50299999999993 139.68400000000003 387.17699999999996 139.80900000000003 387.05299999999994 140.086 C 386.9289999999999 140.363 387.05199999999996 140.68900000000002 387.32899999999995 140.81400000000002 L 387.32899999999995 140.81400000000002 C 387.51899999999995 140.90000000000003 391.99399999999997 142.98900000000003 392.3589999999999 148.45300000000003 C 392.379 148.737 392.608 148.956 392.885 148.967 z" stroke-linecap="round" />
</g>
<g transform="matrix(7.4 0 0 7.4 431.6 455.96)" clip-path="url(#CLIPPATH_198)"  >
<clipPath id="CLIPPATH_198" >
	<ellipse transform="matrix(0.71 -0.71 0.71 0.71 14.69 11.34)" cx="0" cy="0" rx="69.745" ry="69.745" />
</clipPath>
<path style="stroke: none; stroke-width: 1; stroke-dasharray: none; stroke-linecap: butt; stroke-dashoffset: 0; stroke-linejoin: miter; stroke-miterlimit: 4; fill: rgb(48,41,34); fill-rule: nonzero; opacity: 1;" vector-effect="non-scaling-stroke"  transform=" translate(-389.62, -144.29)" d="M 387.89 145.413 C 388.012 145.418 388.13599999999997 145.383 388.24199999999996 145.305 C 388.73699999999997 144.937 390.229 144.04600000000002 391.16799999999995 144.329 C 391.4599999999999 144.417 391.76699999999994 144.252 391.85499999999996 143.961 C 391.943 143.67000000000002 391.77799999999996 143.363 391.48699999999997 143.275 C 389.852 142.782 387.81199999999995 144.25300000000001 387.585 144.423 C 387.34099999999995 144.605 387.291 144.95 387.47299999999996 145.194 C 387.574 145.33 387.73 145.406 387.89 145.413 z" stroke-linecap="round" />
</g>
<g transform="matrix(7.4 0 0 7.4 600.33 525.38)" clip-path="url(#CLIPPATH_199)"  >
<clipPath id="CLIPPATH_199" >
	<ellipse transform="matrix(0.71 -0.71 0.71 0.71 -8.08 2.19)" cx="0" cy="0" rx="69.745" ry="69.745" />
</clipPath>
<path style="stroke: none; stroke-width: 1; stroke-dasharray: none; stroke-linecap: butt; stroke-dashoffset: 0; stroke-linejoin: miter; stroke-miterlimit: 4; fill: rgb(48,41,34); fill-rule: nonzero; opacity: 0.19;" vector-effect="non-scaling-stroke"  transform=" translate(-412.39, -153.45)" d="M 429.302 144.451 L 429.192 154.34799999999998 C 429.192 154.34799999999998 428.644 167.73499999999999 414.726 167.11399999999998 C 409.289 166.86699999999996 402.151 163.37099999999998 398.441 161.13199999999998 C 394.65799999999996 155.69499999999996 395.832 144.78199999999998 395.48499999999996 141.90299999999996 L 398.03099999999995 139.76299999999998 C 398.03099999999995 139.76299999999998 398.17699999999996 148.06999999999996 401.0559999999999 148.96499999999997 C 403.93499999999995 149.86999999999998 405.3139999999999 144.76199999999997 410.88899999999995 144.295 C 416.46299999999997 143.82 423.12499999999994 144.194 425.1809999999999 145.41 C 427.2369999999999 146.635 426.40599999999995 149.138 427.8309999999999 148.965 C 429.184 148.801 429.293 144.872 429.302 144.451 z" stroke-linecap="round" />
</g>
<g transform="matrix(7.4 0 0 7.4 568.3 317.84)" clip-path="url(#CLIPPATH_200)"  >
<clipPath id="CLIPPATH_200" >
	<ellipse transform="matrix(0.71 -0.71 0.71 0.71 -3.76 29.98)" cx="0" cy="0" rx="69.745" ry="69.745" />
</clipPath>
<path style="stroke: none; stroke-width: 1; stroke-dasharray: none; stroke-linecap: butt; stroke-dashoffset: 0; stroke-linejoin: miter; stroke-miterlimit: 4; fill: rgb(48,41,34); fill-rule: nonzero; opacity: 1;" vector-effect="non-scaling-stroke"  transform=" translate(-408.07, -125.66)" d="M 391.25 137.256 C 391.25 137.256 394.115 140.924 395.028 140.794 C 395.942 140.663 397.117 139.168 397.50800000000004 138.21800000000002 C 397.90000000000003 137.269 394.379 131.54600000000002 394.379 131.54600000000002 C 394.379 131.54600000000002 401.033 125.39000000000001 402.077 118.60100000000003 C 402.077 118.60100000000003 406.065 119.77600000000002 413.811 119.90600000000003 C 421.55699999999996 120.03700000000003 429.143 119.51400000000004 429.143 119.51400000000004 C 429.143 119.51400000000004 423.799 109.33100000000005 407.325 110.63700000000004 C 390.851 111.94200000000005 387.00399999999996 121.99400000000004 387.00399999999996 121.99400000000004 L 387.00399999999996 130.21800000000005 L 391.25 137.256 z" stroke-linecap="round" />
</g>
<g transform="matrix(7.4 0 0 7.4 573.55 393.6)" clip-path="url(#CLIPPATH_201)"  >
<clipPath id="CLIPPATH_201" >
	<ellipse transform="matrix(0.71 -0.71 0.71 0.71 -4.47 19.76)" cx="0" cy="0" rx="69.745" ry="69.745" />
</clipPath>
<path style="stroke: none; stroke-width: 1; stroke-dasharray: none; stroke-linecap: butt; stroke-dashoffset: 0; stroke-linejoin: miter; stroke-miterlimit: 4; fill: rgb(253,254,255); fill-rule: nonzero; opacity: 1;" vector-effect="non-scaling-stroke"  transform=" translate(-408.78, -135.88)" d="M 409.567 143.659 C 405.278 144.093 401.43600000000004 140.958 401.002 136.668 C 400.568 132.38 403.704 128.538 407.993 128.104 C 412.282 127.67000000000002 416.124 130.805 416.558 135.09400000000002 C 416.992 139.383 413.856 143.225 409.567 143.659 z M 408.109 129.252 C 404.453 129.622 401.78 132.89700000000002 402.15 136.55200000000002 C 402.52 140.20800000000003 405.79499999999996 142.88100000000003 409.45099999999996 142.51100000000002 C 413.10699999999997 142.14100000000002 415.78 138.866 415.40999999999997 135.21000000000004 C 415.04 131.555 411.765 128.882 408.109 129.252 z" stroke-linecap="round" />
</g>
<g transform="matrix(7.4 0 0 7.4 707.15 397.23)" clip-path="url(#CLIPPATH_202)"  >
<clipPath id="CLIPPATH_202" >
	<ellipse transform="matrix(0.71 -0.71 0.71 0.71 -22.49 19.27)" cx="0" cy="0" rx="69.745" ry="69.745" />
</clipPath>
<path style="stroke: none; stroke-width: 1; stroke-dasharray: none; stroke-linecap: butt; stroke-dashoffset: 0; stroke-linejoin: miter; stroke-miterlimit: 4; fill: rgb(253,254,255); fill-rule: nonzero; opacity: 1;" vector-effect="non-scaling-stroke"  transform=" translate(-426.81, -136.37)" d="M 427.594 144.147 C 423.305 144.581 419.46299999999997 141.445 419.029 137.156 C 418.59499999999997 132.868 421.731 129.026 426.02 128.592 C 430.30899999999997 128.15800000000002 434.15099999999995 131.294 434.585 135.58200000000002 C 435.019 139.871 431.883 143.713 427.594 144.147 z M 426.136 129.74 C 422.48 130.11 419.807 133.38500000000002 420.177 137.04000000000002 C 420.547 140.69600000000003 423.822 143.36900000000003 427.478 142.99900000000002 C 431.134 142.62900000000002 433.807 139.354 433.437 135.69800000000004 C 433.067 132.044 429.792 129.371 426.136 129.74 z" stroke-linecap="round" />
</g>
<g transform="matrix(7.4 0 0 7.4 640.99 394.94)" clip-path="url(#CLIPPATH_203)"  >
<clipPath id="CLIPPATH_203" >
	<ellipse transform="matrix(0.71 -0.71 0.71 0.71 -13.56 19.58)" cx="0" cy="0" rx="69.745" ry="69.745" />
</clipPath>
<path style="stroke: none; stroke-width: 1; stroke-dasharray: none; stroke-linecap: butt; stroke-dashoffset: 0; stroke-linejoin: miter; stroke-miterlimit: 4; fill: rgb(253,254,255); fill-rule: nonzero; opacity: 1;" vector-effect="non-scaling-stroke"  transform=" translate(-417.87, -136.06)" d="M 419.143 136.961 C 417.98199999999997 135.674 416.61199999999997 136.67000000000002 416.45799999999997 136.78900000000002 L 415.746 135.88100000000003 C 416.54699999999997 135.24600000000004 418.471 134.49200000000002 420 136.18800000000002 L 419.143 136.961 z" stroke-linecap="round" />
</g>
<g transform="matrix(7.4 0 0 7.4 484.23 400.38)" clip-path="url(#CLIPPATH_204)"  >
<clipPath id="CLIPPATH_204" >
	<ellipse transform="matrix(0.71 -0.71 0.71 0.71 7.6 18.84)" cx="0" cy="0" rx="69.745" ry="69.745" />
</clipPath>
<path style="stroke: none; stroke-width: 1; stroke-dasharray: none; stroke-linecap: butt; stroke-dashoffset: 0; stroke-linejoin: miter; stroke-miterlimit: 4; fill: rgb(253,254,255); fill-rule: nonzero; opacity: 1;" vector-effect="non-scaling-stroke"  transform=" translate(-396.72, -136.79)" d="M 400.849 136.534 C 400.64 136.646 400.39099999999996 136.67999999999998 400.174 136.608 C 400.073 136.588 398.493 136.32500000000002 393.09999999999997 138.344 C 392.686 138.499 392.26099999999997 138.338 392.15299999999996 137.983 C 392.04099999999994 137.62800000000001 392.29599999999994 137.20600000000002 392.70399999999995 137.061 C 398.90999999999997 134.73600000000002 400.64599999999996 135.18300000000002 400.93199999999996 135.29600000000002 C 401.29999999999995 135.442 401.419 135.85100000000003 401.19899999999996 136.20900000000003 C 401.113 136.348 400.991 136.458 400.849 136.534 z" stroke-linecap="round" />
</g>
<g transform="matrix(7.4 0 0 7.4 745.26 392.41)" clip-path="url(#CLIPPATH_205)"  >
<clipPath id="CLIPPATH_205" >
	<ellipse transform="matrix(0.71 -0.71 0.71 0.71 -27.64 19.92)" cx="0" cy="0" rx="69.745" ry="69.745" />
</clipPath>
<path style="stroke: none; stroke-width: 1; stroke-dasharray: none; stroke-linecap: butt; stroke-dashoffset: 0; stroke-linejoin: miter; stroke-miterlimit: 4; fill: rgb(253,254,255); fill-rule: nonzero; opacity: 1;" vector-effect="non-scaling-stroke"  transform=" translate(-431.95, -135.72)" d="M 434.332 135.645 C 434.211 135.721 434.068 135.76500000000001 433.918 135.76000000000002 C 432.69 135.72700000000003 430.846 136.591 430.238 136.92800000000003 C 429.898 137.116 429.482 137.00900000000001 429.308 136.69000000000003 C 429.135 136.37000000000003 429.266 135.95600000000002 429.611 135.77000000000004 C 429.715 135.71300000000005 432.171 134.36700000000005 434.041 134.41900000000004 C 434.42199999999997 134.42900000000003 434.702 134.73800000000003 434.667 135.10900000000004 C 434.646 135.333 434.516 135.528 434.332 135.645 z" stroke-linecap="round" />
</g>
<g transform="matrix(0 0 0 0 540.49 540)"  >
<g style=""   >
</g>
</g>
<g transform="matrix(0 0 0 0 540.49 540)"  >
<g style=""   >
</g>
</g>
<g transform="matrix(0 -0.75 1.04 0 547.4 725.04)" id="3b5546ed-a045-4ec8-aa04-543f6ad20b45"  >
<polygon style="stroke: rgb(0,0,0); stroke-width: 0; stroke-dasharray: none; stroke-linecap: butt; stroke-dashoffset: 0; stroke-linejoin: miter; stroke-miterlimit: 4; fill: rgb(27,78,59); fill-rule: nonzero; opacity: 1;" vector-effect="non-scaling-stroke"  points="-30.68,-37.41 30.68,0 -30.68,37.41 " />
</g>
<g transform="matrix(0 0 0 0 11.66 -80.04)"  >
<g style=""   >
</g>
</g>
<g transform="matrix(0 0 0 0 11.66 -80.04)"  >
<g style=""   >
</g>
</g>
<g transform="matrix(0 0 0 0 11.66 -80.04)"  >
<g style=""   >
</g>
</g>
<g transform="matrix(12.06 0 0 12.05 541.06 540.63)" id="cffd05f3-a95d-492b-a432-de149e54bdd7"  >
<path style="stroke: rgb(0,0,0); stroke-width: 0; stroke-dasharray: none; stroke-linecap: butt; stroke-dashoffset: 0; stroke-linejoin: miter; stroke-miterlimit: 4; fill: rgb(168,162,158); fill-rule: nonzero; opacity: 1;" vector-effect="non-scaling-stroke"  transform=" translate(-50, -50)" d="M 50 92.875 C 26.358 92.875 7.125 73.642 7.125 50 C 7.125 26.358000000000004 26.358 7.125 50 7.125 C 73.642 7.125 92.875 26.358 92.875 50 C 92.875 73.642 73.642 92.875 50 92.875 z M 50 9.125 C 27.461 9.125 9.125 27.461 9.125 50 C 9.125 72.538 27.461 90.875 50 90.875 C 72.538 90.875 90.875 72.538 90.875 50 C 90.875 27.461 72.538 9.125 50 9.125 z" stroke-linecap="round" />
</g>
<g transform="matrix(NaN NaN NaN NaN 0 0)"  >
<g style=""   >
</g>
</g>
<g transform="matrix(NaN NaN NaN NaN 0 0)"  >
<g style=""   >
</g>
</g>
<g transform="matrix(NaN NaN NaN NaN 0 0)"  >
<g style=""   >
</g>
</g>
<g transform="matrix(NaN NaN NaN NaN 0 0)"  >
<g style=""   >
</g>
</g>
</svg>